<svg width="88" height="88" viewBox="0 0 88 88" fill="none" xmlns="http://www.w3.org/2000/svg">
<g id="customer-service 1" clip-path="url(#clip0_43_653)">
<path id="Vector" d="M26.8663 42.5807V32.6452C26.8663 23.2391 34.4925 15.6129 43.8985 15.6129C53.3046 15.6129 60.9308 23.2391 60.9308 32.6452V42.5807H26.8663Z" fill="#D3A06C"/>
<path id="Vector_2" d="M43.8985 15.6129C43.4188 15.6129 42.949 15.6456 42.4792 15.6839C51.2195 16.4078 58.0921 23.7174 58.0921 32.6452V42.5807H60.9308V32.6452C60.9308 23.2391 53.3046 15.6129 43.8985 15.6129Z" fill="#B27946"/>
<path id="Vector_3" d="M38.2211 75.2258H69.4469L66.7828 67.2348C65.7991 64.2854 63.2869 62.1053 60.2268 61.5489L49.5759 59.6129H38.2211L27.5688 61.5489C24.5101 62.1053 21.9964 64.284 21.0128 67.2348L19.7695 72.8853V75.2258H38.2211Z" fill="#92E0C0"/>
<g id="Group">
<path id="Vector_4" d="M38.2211 55.3548V59.6129L43.8985 65.2903L49.5759 59.6129V55.3548H38.2211Z" fill="#F9E0A6"/>
<path id="Vector_5" d="M55.2534 38.3226H56.6727C59.0246 38.3226 60.9308 40.2288 60.9308 42.5806C60.9308 44.9325 59.0246 46.8387 56.6727 46.8387H55.2534V38.3226Z" fill="#F9E0A6"/>
<path id="Vector_6" d="M32.5437 38.3226H31.1243C28.7725 38.3226 26.8663 40.2288 26.8663 42.5806C26.8663 44.9325 28.7725 46.8387 31.1243 46.8387H32.5437V38.3226Z" fill="#F9E0A6"/>
<path id="Vector_7" d="M31.1243 36.9032V45.4193C31.1243 52.475 36.8429 58.1935 43.8985 58.1935C50.9541 58.1935 56.6727 52.475 56.6727 45.4193V36.9032C52.1294 36.9032 47.7705 35.0978 44.5571 31.8844L43.8985 31.2258L43.2399 31.8844C40.0265 35.0978 35.6677 36.9032 31.1243 36.9032Z" fill="#F9E0A6"/>
</g>
<path id="Vector_8" d="M53.834 45.4194C53.834 51.9938 48.8648 57.403 42.4792 58.1098C42.9461 58.1623 43.4188 58.1936 43.8985 58.1936C50.9541 58.1936 56.6727 52.475 56.6727 45.4194V36.9032C55.7146 36.9032 54.7665 36.8053 53.834 36.6492V45.4194Z" fill="#EABD8C"/>
<path id="Vector_9" d="M63.7695 1.41934H83.6405C85.2089 1.41934 86.4792 2.68966 86.4792 4.25805V15.6129C86.4792 17.1813 85.2089 18.4516 83.6405 18.4516H79.3824L68.0276 25.5484L69.2439 18.4516H63.7695C62.2011 18.4516 60.9308 17.1813 60.9308 15.6129V4.25805C60.9308 2.68966 62.2011 1.41934 63.7695 1.41934Z" fill="#ECECEC"/>
<path id="Vector_10" d="M63.2968 75.2258H69.4469L66.7828 67.2348C65.7991 64.2854 63.2869 62.1053 60.2268 61.5489L49.5759 59.6129L59.7882 65.2861C61.3949 66.1789 62.4708 67.7941 62.6737 69.6222L63.2968 75.2258Z" fill="#48C397"/>
<path id="Vector_11" d="M32.5437 70.2368L27.4539 74.8397C26.3453 75.9483 24.5484 75.9483 23.4399 74.8397L13.2603 64.6601C12.1518 63.5516 12.1518 61.7547 13.2603 60.6462L17.8633 56.0432L9.34716 47.5271L4.01464 52.8596C0.68909 56.1852 0.68909 61.5773 4.01464 64.9028L23.1972 84.0854C26.5228 87.411 31.9149 87.411 35.2404 84.0854L41.0598 78.7529L32.5437 70.2368Z" fill="#FB5968"/>
<path id="Vector_12" d="M68.1297 66.7863C66.9815 63.3444 64.0519 60.8037 60.4808 60.1537L50.9953 58.4277V57.6925C52.646 56.7344 54.0824 55.4528 55.2264 53.9355H58.0921C60.4397 53.9355 62.3501 52.025 62.3501 49.6774V32.6452C62.3501 22.4712 54.0725 14.1935 43.8985 14.1935C33.7246 14.1935 25.4469 22.4712 25.4469 32.6452V42.5806C25.4469 45.3172 27.3928 47.6066 29.9732 48.1403C30.7695 52.2195 33.3186 55.6713 36.8017 57.6925V58.4277L27.3148 60.1537C23.7451 60.8037 20.8141 63.3444 19.6673 66.7863L19.0996 68.491L14.2652 63.6566C13.7117 63.1031 13.7117 62.2018 14.2652 61.6482L19.8717 56.0432L9.34858 45.5201L3.01258 51.8561C1.1362 53.7325 0.102905 56.2277 0.102905 58.8819C0.102905 61.5361 1.1362 64.0299 3.01258 65.9063L22.1952 85.0889C24.0715 86.9653 26.5668 88 29.221 88C31.8752 88 34.369 86.9653 36.2014 85.1315L43.115 78.7969L40.959 76.6452H71.4156L68.1297 66.7863ZM43.8985 63.2833L39.6404 59.0253V58.9586C40.986 59.3815 42.4153 59.6129 43.8985 59.6129C45.3817 59.6129 46.811 59.3815 48.1566 58.9586V59.0253L43.8985 63.2833ZM58.0921 51.0968H56.8984C57.31 50.1586 57.6223 49.1693 57.8238 48.1403C58.4313 48.0139 58.9905 47.7726 59.5114 47.4689V49.6774C59.5114 50.4609 58.8741 51.0968 58.0921 51.0968ZM58.0921 40.1365C58.9366 40.629 59.5114 41.5346 59.5114 42.5806C59.5114 43.6267 58.9366 44.5323 58.0921 45.0248V40.1365ZM28.2856 42.5806C28.2856 41.5346 28.8605 40.629 29.705 40.1365V45.0248C28.8605 44.5323 28.2856 43.6267 28.2856 42.5806ZM29.705 35.4839V37.1048C29.1997 37.2368 28.7256 37.4355 28.2856 37.6924V32.6452C28.2856 24.0368 35.2901 17.0323 43.8985 17.0323C52.5069 17.0323 59.5114 24.0368 59.5114 32.6452V37.6924C59.0714 37.4355 58.5974 37.2353 58.0921 37.1048V35.4839H56.6727C52.4757 35.4839 48.5299 33.8488 45.5606 30.8809L43.8985 29.2188L42.2365 30.8809C39.2672 33.8488 35.3214 35.4839 31.1243 35.4839H29.705ZM32.5437 45.4193V38.2686C36.806 37.9479 40.7802 36.1893 43.8985 33.2243C47.0168 36.1893 50.991 37.9493 55.2534 38.2686V45.4193C55.2534 47.4888 54.6885 49.4248 53.7176 51.0968H43.8985V53.9355H51.3842C49.3829 55.6969 46.767 56.7742 43.8985 56.7742C37.6377 56.7742 32.5437 51.6801 32.5437 45.4193ZM15.8563 56.0432L14.3149 57.5846L7.80574 51.0755L9.34716 49.5341L15.8563 56.0432ZM29.2181 85.1613C27.3233 85.1613 25.5406 84.4218 24.1993 83.0819L5.01671 63.9008C3.67684 62.5609 2.93878 60.7782 2.93878 58.8833C2.93878 56.9871 3.67684 55.2044 5.01671 53.8645L5.79736 53.0839L12.3065 59.593L12.2554 59.6441C10.5962 61.3048 10.5962 64.0058 12.2554 65.6664L22.4336 75.8446C23.2384 76.648 24.3072 77.0922 25.4455 77.0922C26.5838 77.0922 27.6526 76.6494 28.4048 75.8943L28.5113 75.7992L35.0503 82.3382L34.2355 83.0848C32.8957 84.4218 31.113 85.1613 29.2181 85.1613ZM37.1452 80.4164L30.6205 73.8916L32.4954 72.1969L39.0088 78.7103L37.1452 80.4164ZM38.1203 73.8064L32.5919 68.2781L26.449 73.8348C25.9139 74.3728 24.9785 74.3728 24.442 73.8348L21.3421 70.735L22.3584 67.6833C23.1774 65.225 25.2709 63.4097 27.8215 62.9441L37.7428 61.1415L43.8985 67.2973L50.0528 61.143L59.9727 62.9455C62.5233 63.4111 64.6168 65.225 65.4358 67.6848L67.4783 73.8064H38.1203Z" fill="black"/>
<path id="Vector_13" d="M83.6404 0H63.7695C61.4219 0 59.5114 1.91045 59.5114 4.25806V15.6129C59.5114 17.9605 61.4219 19.871 63.7695 19.871H67.5606L66.093 28.4311L79.7897 19.871H83.6404C85.9881 19.871 87.8985 17.9605 87.8985 15.6129V4.25806C87.8985 1.91045 85.9881 0 83.6404 0ZM85.0598 15.6129C85.0598 16.395 84.4225 17.0323 83.6404 17.0323H78.975L69.9607 22.6657L70.9273 17.0323H63.7695C62.9874 17.0323 62.3501 16.395 62.3501 15.6129V4.25806C62.3501 3.476 62.9874 2.83871 63.7695 2.83871H83.6404C84.4225 2.83871 85.0598 3.476 85.0598 4.25806V15.6129Z" fill="black"/>
<path id="Vector_14" d="M82.2211 5.67743H65.1888V8.51614H82.2211V5.67743Z" fill="black"/>
<path id="Vector_15" d="M76.5437 11.3548H65.1888V14.1935H76.5437V11.3548Z" fill="black"/>
<path id="Vector_16" d="M82.2211 11.3548H79.3824V14.1935H82.2211V11.3548Z" fill="black"/>
<path id="Vector_17" d="M13.4037 35.2809L11.9431 32.8467L8.0967 35.1546C12.1191 18.7852 26.8393 7.09677 43.8985 7.09677C47.6271 7.09677 51.3061 7.65031 54.8332 8.74322L55.6735 6.03225C51.8739 4.85419 47.9124 4.25806 43.8985 4.25806C25.3532 4.25806 9.37837 17.0862 5.22534 34.98L2.53566 30.4963L0.101471 31.9568L5.0905 40.2699L13.4037 35.2809Z" fill="black"/>
<path id="Vector_18" d="M73.908 34.7529L76.3421 36.2134L78.826 32.0732C80.1332 35.8983 80.8018 39.8995 80.8018 44C80.8018 52.4409 77.8779 60.693 72.5709 67.2348L74.7752 69.0232C80.4923 61.9776 83.6405 53.0895 83.6405 44C83.6405 39.6582 82.9407 35.4186 81.5767 31.3592L85.7482 33.8615L87.2087 31.4274L78.8956 26.4383L73.908 34.7529Z" fill="black"/>
</g>
<defs>
<clipPath id="clip0_43_653">
<rect width="88" height="88" fill="white"/>
</clipPath>
</defs>
</svg>
