<svg width="88" height="88" viewBox="0 0 88 88" fill="none" xmlns="http://www.w3.org/2000/svg">
<g id="delivery-man 1">
<g id="Filled stroke cut Ex">
<g id="Group">
<path id="Vector" d="M68.75 53.625L78.1045 62.9795C79.0621 63.9371 79.8217 65.0739 80.34 66.3251C80.8583 67.5763 81.125 68.9173 81.125 70.2716V78.7188C81.125 80.0863 80.5818 81.3978 79.6148 82.3648C78.6478 83.3318 77.3363 83.875 75.9688 83.875H71.5V74.25H68.75V53.625Z" fill="#FA5D3F"/>
<path id="Vector_2" d="M20.625 79.75V52.25L35.75 42.625H52.25L67.375 52.25V79.75H20.625Z" fill="#FA5D3F"/>
<path id="Vector_3" d="M52.25 42.625L44 50.875L35.75 42.625L37.125 37.125H50.875L52.25 42.625Z" fill="#FFD4CF"/>
<path id="Vector_4" d="M51.3967 39.2119L50.875 37.125H37.125L36.5946 39.2468L41.2232 41.5611C42.0871 41.9931 43.0402 42.2168 44.0061 42.2143C44.972 42.2119 45.9239 41.9833 46.7856 41.547L51.3967 39.2119Z" fill="#FBB8B0"/>
<path id="Vector_5" d="M57.0625 20.625H55V15.125H33V20.625H30.9375C30.0258 20.625 29.1515 20.9872 28.5068 21.6318C27.8622 22.2765 27.5 23.1508 27.5 24.0625V25.4375C27.5 26.3492 27.8622 27.2235 28.5068 27.8682C29.1515 28.5128 30.0258 28.875 30.9375 28.875H33V31.1883C33 32.1458 33.2666 33.0845 33.77 33.8991C34.2734 34.7136 34.9937 35.3719 35.8502 35.8002L42.4531 39.1016C42.9331 39.3415 43.4625 39.4658 43.9991 39.4645C44.5357 39.4632 45.0645 39.3362 45.5433 39.0938L52.1733 35.7364C53.0236 35.3058 53.7379 34.6479 54.2369 33.8359C54.7359 33.0238 55 32.0893 55 31.1362V28.875H57.0625C57.9742 28.875 58.8485 28.5128 59.4932 27.8682C60.1378 27.2235 60.5 26.3492 60.5 25.4375V24.0625C60.5 23.1508 60.1378 22.2765 59.4932 21.6318C58.8485 20.9872 57.9742 20.625 57.0625 20.625Z" fill="#FFD4CF"/>
<g id="Group_2">
<path id="Vector_6" d="M37.125 22H39.875V24.75H37.125V22Z" fill="black"/>
<path id="Vector_7" d="M48.125 22H50.875V24.75H48.125V22Z" fill="black"/>
</g>
<path id="Vector_8" d="M44 34.375C41.6869 34.375 39.875 32.8651 39.875 30.9375H42.625C42.625 31.1798 43.147 31.625 44 31.625C44.853 31.625 45.375 31.1798 45.375 30.9375H48.125C48.125 32.8651 46.3131 34.375 44 34.375Z" fill="black"/>
<path id="Vector_9" d="M40.2188 4.125H47.7812C50.0605 4.125 52.2463 5.03041 53.858 6.64205C55.4696 8.25369 56.375 10.4395 56.375 12.7188V15.125H31.625V12.7188C31.625 10.4395 32.5304 8.25369 34.142 6.64205C35.7537 5.03041 37.9395 4.125 40.2188 4.125Z" fill="#FA5D3F"/>
<path id="Vector_10" d="M51.0307 19.8122L47.8136 17.6674C46.6842 16.9145 45.3573 16.5127 44 16.5127C42.6427 16.5127 41.3158 16.9145 40.1864 17.6674L36.9693 19.8122C36.4516 20.1573 35.8499 20.3555 35.2285 20.3855C34.607 20.4156 33.9891 20.2764 33.4405 19.9828C32.8919 19.6892 32.4333 19.2522 32.1136 18.7185C31.7939 18.1847 31.625 17.5742 31.625 16.952V15.125L37.3225 11.9598C39.3651 10.825 41.6632 10.2296 43.9998 10.2296C46.3365 10.2296 48.6346 10.825 50.6772 11.9598L56.375 15.125V16.952C56.375 17.5742 56.2061 18.1847 55.8864 18.7185C55.5667 19.2522 55.1081 19.6892 54.5595 19.9828C54.0109 20.2764 53.393 20.4156 52.7715 20.3855C52.1501 20.3555 51.5484 20.1573 51.0307 19.8122Z" fill="#FAC850"/>
<path id="Vector_11" d="M19.25 48.125H68.75V83.875H19.25V48.125Z" fill="#FAC850"/>
<path id="Vector_12" d="M22 74.25H16.5V83.875H31.625C31.625 81.3223 30.6109 78.8741 28.8059 77.0691C27.0009 75.2641 24.5527 74.25 22 74.25Z" fill="#FFD4CF"/>
<path id="Vector_13" d="M38.5 48.125H49.5V60.5H38.5V48.125Z" fill="#FA7D29"/>
<path id="Vector_14" d="M38.5 75.625H49.5V83.875H38.5V75.625Z" fill="#FA7D29"/>
<path id="Vector_15" d="M19.25 53.625L9.89553 62.9795C8.9379 63.9371 8.17827 65.0739 7.66001 66.3251C7.14174 67.5763 6.875 68.9173 6.875 70.2716V78.7188C6.875 80.0863 7.41825 81.3978 8.38523 82.3648C9.35222 83.3318 10.6637 83.875 12.0312 83.875H16.5V74.25H19.25V53.625Z" fill="#FA5D3F"/>
<path id="Vector_16" d="M66 74.25H71.5V83.875H56.375C56.375 81.3223 57.3891 78.8741 59.1941 77.0691C60.9991 75.2641 63.4473 74.25 66 74.25Z" fill="#FFD4CF"/>
<path id="Vector_17" d="M23.375 52.25H26.125V55H23.375V52.25Z" fill="black"/>
<path id="Vector_18" d="M28.875 52.25H34.375V55H28.875V52.25Z" fill="black"/>
<path id="Vector_19" d="M23.375 57.75H34.375V60.5H23.375V57.75Z" fill="black"/>
<path id="Vector_20" d="M58.4375 53.625H63.25V57.0625C63.25 57.9742 62.8878 58.8485 62.2432 59.4932C61.5985 60.1378 60.7242 60.5 59.8125 60.5H55V57.0625C55 56.1508 55.3622 55.2765 56.0068 54.6318C56.6515 53.9872 57.5258 53.625 58.4375 53.625Z" fill="#FFFFFE"/>
<path id="Vector_21" d="M59.8125 61.875H55C54.6353 61.875 54.2856 61.7301 54.0277 61.4723C53.7699 61.2144 53.625 60.8647 53.625 60.5V57.0625C53.6265 55.7866 54.134 54.5634 55.0362 53.6612C55.9384 52.759 57.1616 52.2515 58.4375 52.25H63.25C63.6147 52.25 63.9644 52.3949 64.2223 52.6527C64.4801 52.9106 64.625 53.2603 64.625 53.625V57.0625C64.6235 58.3384 64.116 59.5616 63.2138 60.4638C62.3116 61.366 61.0884 61.8735 59.8125 61.875ZM56.375 59.125H59.8125C60.3593 59.1244 60.8836 58.9069 61.2703 58.5203C61.6569 58.1336 61.8744 57.6093 61.875 57.0625V55H58.4375C57.8907 55.0006 57.3664 55.2181 56.9797 55.6047C56.5931 55.9914 56.3756 56.5157 56.375 57.0625V59.125Z" fill="black"/>
<path id="Vector_22" d="M79.077 62.0073L73.8473 56.7777L71.9027 58.7223L77.1324 63.9518C77.9649 64.7798 78.6249 65.7647 79.0742 66.8495C79.5235 67.9343 79.7532 69.0974 79.75 70.2716V78.7188C79.7489 79.7213 79.3501 80.6824 78.6413 81.3912C77.9324 82.1001 76.9713 82.4989 75.9688 82.5H72.875V75.625H75.625V72.875H70.125V48.125C70.125 47.7603 69.9801 47.4106 69.7223 47.1527C69.4644 46.8949 69.1147 46.75 68.75 46.75H61.2934L53.4509 41.7593L52.3127 37.2068L52.794 36.9629C53.8734 36.4204 54.7803 35.5878 55.4128 34.5586C56.0453 33.5294 56.3785 32.3442 56.375 31.1362V30.25H57.0625C58.3384 30.2485 59.5617 29.741 60.4639 28.8388C61.3661 27.9366 61.8736 26.7134 61.875 25.4375V24.0625C61.8735 22.8046 61.3802 21.5972 60.5004 20.6981C59.6206 19.7991 58.4241 19.2798 57.1665 19.2512C57.55 18.5456 57.7506 17.7551 57.75 16.952V12.7188C57.747 10.0758 56.6958 7.54195 54.8269 5.6731C52.9581 3.80424 50.4242 2.753 47.7813 2.75H40.2188C37.5758 2.753 35.042 3.80424 33.1731 5.6731C31.3043 7.54195 30.253 10.0758 30.25 12.7188V16.952C30.2497 17.7552 30.4506 18.5457 30.8344 19.2512C29.5767 19.2796 28.3799 19.7988 27.4999 20.6979C26.6199 21.5969 26.1265 22.8045 26.125 24.0625V25.4375C26.1265 26.7134 26.634 27.9366 27.5362 28.8388C28.4384 29.741 29.6616 30.2485 30.9375 30.25H31.625V31.1883C31.6209 32.4021 31.957 33.5927 32.5951 34.6253C33.2332 35.6578 34.1479 36.4908 35.2354 37.03L35.6765 37.2505L34.5491 41.7593L26.7066 46.75H19.25C18.8853 46.75 18.5356 46.8949 18.2777 47.1527C18.0199 47.4106 17.875 47.7603 17.875 48.125V53.0554L12.7777 58.1527L14.7223 60.0973L17.875 56.9446V72.875H12.375V75.625H15.125V82.5H12.0313C11.0288 82.4989 10.0676 82.1001 9.35877 81.3912C8.6499 80.6824 8.25115 79.7213 8.25001 78.7188V70.2716C8.24682 69.0975 8.47652 67.9343 8.92581 66.8495C9.3751 65.7647 10.0351 64.7798 10.8675 63.9518L11.9721 62.8473L10.0279 60.9027L8.92308 62.0073C7.83441 63.0901 6.97131 64.378 6.38374 65.7966C5.79617 67.2152 5.4958 68.7362 5.50001 70.2716V78.7188C5.50197 80.4503 6.19071 82.1105 7.41513 83.3349C8.63956 84.5593 10.2997 85.248 12.0313 85.25H75.9688C77.7004 85.248 79.3605 84.5593 80.5849 83.3349C81.8093 82.1105 82.4981 80.4503 82.5 78.7188V70.2716C82.5042 68.7362 82.2038 67.2152 81.6163 65.7966C81.0287 64.378 80.1656 63.0901 79.077 62.0073ZM39.875 49.5H48.125V59.125H39.875V49.5ZM50.0696 46.75L52.4423 44.3781L56.171 46.75H50.0696ZM34.0894 18.7705C33.7581 18.5969 33.4811 18.3353 33.2889 18.0145C33.0967 17.6937 32.9967 17.326 33 16.952V15.934L37.9901 13.1617C39.8263 12.1337 41.8956 11.5939 44 11.5939C46.1045 11.5939 48.1737 12.1337 50.01 13.1617L55 15.934V16.952C55 17.3253 54.8986 17.6916 54.7068 18.0118C54.515 18.3321 54.2398 18.5942 53.9107 18.7704C53.5816 18.9465 53.2108 19.03 52.838 19.012C52.4651 18.994 52.1041 18.8751 51.7935 18.668L48.5764 16.5234C47.2222 15.6171 45.6295 15.1333 44 15.1333C42.3706 15.1333 40.7778 15.6171 39.4237 16.5234L36.2065 18.668C35.8972 18.8782 35.5359 18.9989 35.1623 19.017C34.7888 19.0351 34.4175 18.9498 34.0894 18.7705ZM59.125 24.0625V25.4375C59.1244 25.9843 58.9069 26.5086 58.5203 26.8953C58.1336 27.2819 57.6093 27.4994 57.0625 27.5H56.375V22H57.0625C57.6093 22.0006 58.1336 22.2181 58.5203 22.6047C58.9069 22.9914 59.1244 23.5157 59.125 24.0625ZM40.2188 5.5H47.7813C49.6951 5.50214 51.53 6.26337 52.8833 7.61668C54.2366 8.97 54.9979 10.8049 55 12.7188V12.7875L51.3453 10.7578C49.101 9.50135 46.572 8.84158 44 8.84158C41.428 8.84158 38.899 9.50135 36.6548 10.7578L33 12.7875V12.7188C33.0022 10.8049 33.7634 8.97 35.1167 7.61668C36.47 6.26337 38.3049 5.50214 40.2188 5.5ZM30.9375 27.5C30.3907 27.4994 29.8664 27.2819 29.4798 26.8953C29.0931 26.5086 28.8756 25.9843 28.875 25.4375V24.0625C28.8756 23.5157 29.0931 22.9914 29.4798 22.6047C29.8664 22.2181 30.3907 22.0006 30.9375 22H31.625V27.5H30.9375ZM34.375 31.1883V21.7161C35.5494 21.8863 36.7453 21.6156 37.7319 20.9562L40.9491 18.8114C41.8518 18.2073 42.9136 17.8848 43.9998 17.8848C45.0861 17.8848 46.1479 18.2073 47.0506 18.8114L50.2678 20.9562C51.2546 21.6154 52.4505 21.886 53.625 21.7159V31.1362C53.6271 31.8356 53.4342 32.5217 53.068 33.1176C52.7018 33.7135 52.1768 34.1955 51.5519 34.5096L44.9221 37.8668C44.6347 38.0116 44.3175 38.0875 43.9956 38.0883C43.6737 38.0891 43.3561 38.0149 43.0679 37.8716L36.4654 34.5704C35.8357 34.2583 35.3062 33.776 34.9367 33.1782C34.5672 32.5804 34.3726 31.891 34.375 31.1883ZM41.838 40.332C42.5104 40.6664 43.2515 40.8396 44.0025 40.8377C44.7535 40.8357 45.4937 40.6589 46.1644 40.321L49.7967 38.482L50.7274 42.2043L46.1804 46.75H41.8196L37.2727 42.2032L38.196 38.5103L41.838 40.332ZM35.5577 44.378L37.9304 46.75H31.8289L35.5577 44.378ZM20.625 49.5H37.125V60.5C37.125 60.8647 37.2699 61.2144 37.5277 61.4723C37.7856 61.7301 38.1353 61.875 38.5 61.875H49.5C49.8647 61.875 50.2144 61.7301 50.4723 61.4723C50.7301 61.2144 50.875 60.8647 50.875 60.5V49.5H67.375V72.875H66C63.3217 72.8786 60.7365 73.8577 58.7278 75.6292C56.719 77.4007 55.4244 79.8432 55.0859 82.5H50.875V75.625C50.875 75.2603 50.7301 74.9106 50.4723 74.6527C50.2144 74.3949 49.8647 74.25 49.5 74.25H38.5C38.1353 74.25 37.7856 74.3949 37.5277 74.6527C37.2699 74.9106 37.125 75.2603 37.125 75.625V82.5H32.9141C32.5756 79.8432 31.281 77.4007 29.2723 75.6292C27.2635 73.8577 24.6783 72.8786 22 72.875H20.625V49.5ZM17.875 82.5V75.625H22C23.9491 75.6275 25.8345 76.3188 27.3232 77.5769C28.8118 78.8349 29.8079 80.5787 30.1354 82.5H17.875ZM39.875 82.5V77H48.125V82.5H39.875ZM70.125 82.5H57.8647C58.1921 80.5787 59.1882 78.8349 60.6769 77.5769C62.1655 76.3188 64.051 75.6275 66 75.625H70.125V82.5Z" fill="black"/>
</g>
</g>
</g>
</svg>
